<?xml version="1.0" encoding="utf-8"?>
<!-- Generator: Adobe Illustrator 26.4.1, SVG Export Plug-In . SVG Version: 6.00 Build 0)  -->
<svg version="1.1" id="Layer_1" xmlns="http://www.w3.org/2000/svg" xmlns:xlink="http://www.w3.org/1999/xlink" x="0px" y="0px"
	 viewBox="0 0 17.1 36" style="enable-background:new 0 0 17.1 36;" xml:space="preserve">
<style type="text/css">
	.st0{stroke:#000000;stroke-width:0.5;stroke-miterlimit:10;}
	.st1{stroke:#000000;stroke-miterlimit:10;}
</style>
<path class="st0" d="M6.4,20.5C6.4,21.9,6,23,5.5,23c-0.5,0-0.9-1.1-0.9-2.5V8.2H4.5v12.3c0,1.5,0.4,2.7,1,2.7c0.6,0,1-1.2,1-2.7
	V8.2H6.4V20.5z"/>
<path class="st0" d="M12.5,20.5c0,1.4-0.4,2.5-0.9,2.5c-0.5,0-0.9-1.1-0.9-2.5V8.2h-0.1v12.3c0,1.5,0.4,2.7,1,2.7c0.6,0,1-1.2,1-2.7
	V8.2h-0.1V20.5z"/>
<path class="st1" d="M8.6,0.5c-4.4,0-8,4-8,8.8v15.6c0,1,1.2,1.8,2.6,1.8h3v7.2c0,0.9,1.1,1.5,2.4,1.5c1.3,0,2.4-0.7,2.4-1.5v-7.2h3
	c1.4,0,2.6-0.8,2.6-1.8V9.3C16.6,4.5,13,0.5,8.6,0.5z M10.7,33.9c0,0.8-1,1.4-2.2,1.4c-1.2,0-2.2-0.6-2.2-1.4v-7.2h4.4L10.7,33.9
	L10.7,33.9z M16.2,24.9c0,0.9-1,1.5-2.2,1.5H3.1c-1.2,0-2.2-0.7-2.2-1.5V9.3c0-4.7,3.4-8.6,7.7-8.6s7.7,3.8,7.7,8.6V24.9z"/>
</svg>
