<?xml version="1.0" encoding="utf-8"?>
<!-- Generator: Adobe Illustrator 26.4.1, SVG Export Plug-In . SVG Version: 6.00 Build 0)  -->
<svg version="1.1" id="Layer_1" xmlns="http://www.w3.org/2000/svg" xmlns:xlink="http://www.w3.org/1999/xlink" x="0px" y="0px"
	 viewBox="0 0 861.8 136.9" style="enable-background:new 0 0 861.8 136.9;" xml:space="preserve">
<style type="text/css">
	.st0{fill:#FFDD00;}
	.st1{fill:#0057B7;}
	.st2{fill:url(#SVGID_1_);}
	.st3{fill:url(#SVGID_00000064326110353444642820000000876192902071969457_);}
	.st4{fill:url(#SVGID_00000083772734071787137740000003950612864743652007_);}
	.st5{fill:url(#SVGID_00000179631299310721436350000012619543930250632624_);}
	.st6{fill:url(#SVGID_00000138537353570450942850000009616347873326444223_);}
	.st7{fill:url(#SVGID_00000059283007415958364090000014560362946442355635_);}
</style>
<g>
	<g>
		<path class="st0" d="M33.7,93c-3,0.3-6.1,0.3-9,0.8c-9.1,1.8-15,10.9-13.1,20c1.2,5.7,6.8,9.5,13.5,8.5c4.2-0.6,8.6-1.8,12.4-3.6
			c17.6-8.4,35-17.1,52.4-25.7c8.2-4.1,16.8-5.5,25.8-3.3c9.8,2.4,16.3,10.3,17.1,20.7c0.8,9.5-5.1,20.1-13.3,23.7
			c-6.9,3.1-13.7,2.3-20.1-1.2c0-0.4,0-0.8,0-1.2c1.5,0,2.9,0,4.4,0c10.6-0.1,17.9-7.5,17.7-18c-0.1-6.6-4.3-10.8-11-11.2
			c-5.4-0.3-10.3,1.2-15.1,3.5c-17.8,8.8-35.5,17.6-53.4,26.1c-9.5,4.6-19.3,5.9-29.2,1.2c-8.6-4-13.6-13.2-12.7-22.7
			c1-10.3,7.6-19,16.7-21.3c5.5-1.4,10.9-0.5,16,2c0.3,0.2,0.6,0.4,0.8,0.8C33.7,92.4,33.7,92.7,33.7,93z"/>
		<path class="st1" d="M97.4,10.2c7.2,4,14.9,22.9,10.6,37.5C102.6,66,85.5,80.1,67.6,80.3c-19.7,0.2-37-12.9-42.8-31.8
			c-4.6-15,2.7-33.4,10.4-39.2c-0.5,2.1-0.7,3.4-1.2,4.6c-10.3,24.4,4.7,43.6,24.7,49.3c18.7,5.3,48.1-12.2,42.4-40.3
			c-0.6-3.2-1.8-6.2-2.8-9.3C98.2,12.4,97.8,11.3,97.4,10.2z"/>
		<path class="st1" d="M77.2,42.8c0.5-1.2,0.9-2.4,1.4-3.6c2.1-5.2,2.1-10.5,0.2-15.7c-2.2-6.3-7.6-10.5-12.9-10.2
			c-5.6,0.3-10.8,4.9-12.5,11.3c-1.4,5.2-1.3,10.3,1,15.3c0.4,0.9,0.6,2,0.6,3.1c-3.6-1.9-5.1-5.2-6.2-8.7
			c-2.8-8.7-2.3-17.2,2.5-25.2c7.1-11.8,24.4-11.8,31.1,1.3c5.1,10.2,4.8,20.7-1.8,30.5c-0.6,0.9-1.6,1.6-2.3,2.4
			C77.8,43.2,77.5,43,77.2,42.8z"/>
	</g>
	<g>
		
			<linearGradient id="SVGID_1_" gradientUnits="userSpaceOnUse" x1="226.804" y1="396.1" x2="226.804" y2="533" gradientTransform="matrix(1 0 0 1 0 -396)">
			<stop  offset="0.5" style="stop-color:#0057B7"/>
			<stop  offset="0.5" style="stop-color:#FFDD00"/>
		</linearGradient>
		<path class="st2" d="M180.6,136.9c-1.1,0-2-0.5-2.8-1.4c-0.7-0.9-1.1-2-1.1-3.3V5c0-1.4,0.4-2.6,1.1-3.5c0.7-0.9,1.6-1.4,2.8-1.4
			h12.1c1.4,0,2.5,0.5,3.2,1.5s1.2,1.7,1.4,2.2l29.5,70.4l29.7-70.4c0.2-0.5,0.7-1.3,1.4-2.2c0.7-1,1.8-1.5,3.2-1.5H273
			c1.1,0,2,0.5,2.8,1.4c0.7,0.9,1.1,2.1,1.1,3.5v127.3c0,1.3-0.4,2.4-1.1,3.3c-0.7,0.9-1.6,1.4-2.8,1.4h-12.8c-1.1,0-2-0.5-2.7-1.4
			s-1-2-1-3.3V47.6l-21.4,52.2c-0.5,1.2-1.2,2.2-2,3s-1.9,1.3-3.2,1.3h-6.3c-1.4,0-2.5-0.4-3.3-1.3c-0.8-0.8-1.4-1.9-1.9-3L197,47.6
			v84.7c0,1.3-0.4,2.4-1.1,3.3s-1.6,1.4-2.6,1.4L180.6,136.9L180.6,136.9z"/>
		
			<linearGradient id="SVGID_00000101815035736661972910000007900807514351263117_" gradientUnits="userSpaceOnUse" x1="341.604" y1="396" x2="341.604" y2="532.9" gradientTransform="matrix(1 0 0 1 0 -396)">
			<stop  offset="0.5" style="stop-color:#0057B7"/>
			<stop  offset="0.5" style="stop-color:#FFDD00"/>
		</linearGradient>
		<path style="fill:url(#SVGID_00000101815035736661972910000007900807514351263117_);" d="M294.1,136.9c-0.8,0-1.5-0.4-2.2-1.2
			s-1-1.8-1-2.9c0-0.5,0.1-1.1,0.3-1.8L328,4.9c0.3-1.3,0.9-2.5,1.8-3.4c0.9-1,2.1-1.5,3.6-1.5H350c1.5,0,2.7,0.5,3.5,1.5
			s1.4,2.1,1.8,3.4L392.1,131c0.1,0.6,0.2,1.2,0.2,1.8c0,1.2-0.3,2.1-0.9,2.9c-0.6,0.8-1.3,1.2-2.1,1.2H376c-1.4,0-2.5-0.4-3.1-1.3
			c-0.7-0.8-1.1-1.7-1.3-2.4l-7.2-23.9H319l-7.2,23.9c-0.2,0.8-0.6,1.6-1.3,2.4c-0.7,0.9-1.7,1.3-3.1,1.3H294.1z M324.3,86.9H359
			l-17.4-60.4L324.3,86.9z"/>
		
			<linearGradient id="SVGID_00000006705132634302114250000013513269415032230557_" gradientUnits="userSpaceOnUse" x1="473.254" y1="396" x2="473.254" y2="532.9" gradientTransform="matrix(1 0 0 1 0 -396)">
			<stop  offset="0.5" style="stop-color:#0057B7"/>
			<stop  offset="0.5" style="stop-color:#FFDD00"/>
		</linearGradient>
		<path style="fill:url(#SVGID_00000006705132634302114250000013513269415032230557_);" d="M402.6,136.9c-0.9,0-1.7-0.5-2.4-1.4
			c-0.7-0.9-1-2-1-3.1c0-1,0.1-1.8,0.3-2.1l31.8-64.1L402.5,6.5c-0.4-0.9-0.6-1.7-0.6-2.4c0-1.2,0.2-2.2,0.8-2.9
			c0.5-0.8,1.3-1.2,2.4-1.2h15c1.4,0,2.6,0.3,3.4,1s1.5,1.5,2.1,2.5l24.9,52h12.4V4.7c0-1.3,0.4-2.4,1.1-3.3
			c0.7-0.9,1.6-1.4,2.6-1.4h13.3c1.1,0,2,0.5,2.7,1.4s1,2,1,3.3v50.8H496l24.9-52c0.5-1,1.2-1.9,2.1-2.5c0.9-0.7,2-1,3.4-1h15.1
			c1,0,1.8,0.4,2.4,1.2s0.8,1.8,0.8,2.9c0,0.7-0.2,1.5-0.6,2.4l-28.9,59.6l31.8,64.1c0.2,0.4,0.3,1.1,0.3,2.1c0,1.2-0.3,2.2-1,3.1
			c-0.7,0.9-1.5,1.4-2.5,1.4h-15.6c-1.4,0-2.5-0.4-3.1-1.2c-0.7-0.8-1.2-1.5-1.6-2.1l-26.6-53.8h-13.3v52.6c0,1.3-0.3,2.4-1,3.2
			c-0.7,0.9-1.5,1.3-2.7,1.3h-13.3c-1,0-1.9-0.4-2.6-1.3c-0.7-0.8-1.1-2-1.1-3.4V79.7h-13.4l-26.6,53.8c-0.3,0.6-0.8,1.4-1.5,2.1
			s-1.7,1.2-3.1,1.2L402.6,136.9L402.6,136.9z"/>
		
			<linearGradient id="SVGID_00000040532661046707141690000012617007123388169622_" gradientUnits="userSpaceOnUse" x1="604.754" y1="396" x2="604.754" y2="532.9" gradientTransform="matrix(1 0 0 1 0 -396)">
			<stop  offset="0.5" style="stop-color:#0057B7"/>
			<stop  offset="0.5" style="stop-color:#FFDD00"/>
		</linearGradient>
		<path style="fill:url(#SVGID_00000040532661046707141690000012617007123388169622_);" d="M557.2,136.9c-0.8,0-1.5-0.4-2.2-1.2
			s-1-1.8-1-2.9c0-0.5,0.1-1.1,0.3-1.8L591.1,4.9c0.3-1.3,0.9-2.5,1.8-3.4c0.9-1,2.1-1.5,3.6-1.5h16.7c1.5,0,2.7,0.5,3.5,1.5
			s1.4,2.1,1.8,3.4L655.3,131c0.1,0.6,0.2,1.2,0.2,1.8c0,1.2-0.3,2.1-0.9,2.9s-1.3,1.2-2.1,1.2h-13.3c-1.4,0-2.5-0.4-3.1-1.3
			c-0.7-0.8-1.1-1.7-1.3-2.4l-7.2-23.9h-45.3l-7.2,23.9c-0.2,0.8-0.6,1.6-1.3,2.4c-0.7,0.9-1.7,1.3-3.1,1.3H557.2z M587.4,86.9h34.7
			l-17.4-60.4L587.4,86.9z"/>
		
			<linearGradient id="SVGID_00000026124500467140516360000003448832374383594666_" gradientUnits="userSpaceOnUse" x1="711.5041" y1="396.1" x2="711.5041" y2="533" gradientTransform="matrix(1 0 0 1 0 -396)">
			<stop  offset="0.5" style="stop-color:#0057B7"/>
			<stop  offset="0.5" style="stop-color:#FFDD00"/>
		</linearGradient>
		<path style="fill:url(#SVGID_00000026124500467140516360000003448832374383594666_);" d="M673.2,136.9c-1,0-1.9-0.5-2.6-1.4
			c-0.7-0.9-1.1-2-1.1-3.3V5c0-1.4,0.3-2.6,1.1-3.5c0.7-0.9,1.6-1.4,2.6-1.4h40.9c7.9,0,14.9,1.6,20.8,4.8c5.9,3.2,10.5,8,13.7,14.5
			c3.3,6.5,4.9,14.5,4.9,24.1c0,9.8-1.6,17.8-4.9,24.2c-3.3,6.3-7.8,11-13.7,14.2c-5.9,3.1-12.8,4.7-20.8,4.7h-22.8v45.7
			c0,1.3-0.3,2.4-1,3.3s-1.5,1.4-2.7,1.4L673.2,136.9L673.2,136.9z M691.1,64.8h22.3c5.9,0,10.4-1.8,13.6-5.4
			c3.2-3.6,4.7-8.9,4.7-15.9c0-6.5-1.5-11.8-4.4-15.7c-3-4-7.6-6-13.9-6h-22.3L691.1,64.8L691.1,64.8z"/>
		
			<linearGradient id="SVGID_00000052808293175750101570000006267293159348094363_" gradientUnits="userSpaceOnUse" x1="811.104" y1="396" x2="811.104" y2="532.9" gradientTransform="matrix(1 0 0 1 0 -396)">
			<stop  offset="0.5" style="stop-color:#0057B7"/>
			<stop  offset="0.5" style="stop-color:#FFDD00"/>
		</linearGradient>
		<path style="fill:url(#SVGID_00000052808293175750101570000006267293159348094363_);" d="M763.6,136.9c-0.8,0-1.5-0.4-2.2-1.2
			s-1-1.8-1-2.9c0-0.5,0.1-1.1,0.3-1.8L797.5,4.9c0.3-1.3,0.9-2.5,1.8-3.4c0.9-1,2.1-1.5,3.6-1.5h16.6c1.5,0,2.7,0.5,3.5,1.5
			s1.4,2.1,1.8,3.4L861.6,131c0.1,0.6,0.2,1.2,0.2,1.8c0,1.2-0.3,2.1-0.9,2.9s-1.3,1.2-2.1,1.2h-13.3c-1.4,0-2.5-0.4-3.1-1.3
			c-0.7-0.8-1.1-1.7-1.3-2.4l-7.2-23.9h-45.4l-7.2,23.9c-0.2,0.8-0.6,1.6-1.3,2.4c-0.7,0.9-1.7,1.3-3.1,1.3H763.6z M793.9,86.9h34.6
			l-17.4-60.4L793.9,86.9z"/>
	</g>
</g>
</svg>
